<mxfile host="app.diagrams.net" modified="2023-09-24T08:38:52.970Z" agent="Mozilla/5.0 (Windows NT 10.0; Win64; x64) AppleWebKit/537.36 (KHTML, like Gecko) Chrome/117.0.0.0 Safari/537.36 Edg/117.0.2045.36" etag="kCf3LijDQDuzIQ-b176N" version="21.7.5" type="github">
  <diagram name="Trang-1" id="kPwwQR6G2WFGY322X0-l">
    <mxGraphModel dx="1339" dy="759" grid="1" gridSize="10" guides="1" tooltips="1" connect="1" arrows="1" fold="1" page="1" pageScale="1" pageWidth="827" pageHeight="1169" math="0" shadow="0">
      <root>
        <mxCell id="0" />
        <mxCell id="1" parent="0" />
        <mxCell id="plBoECsc5ai0IXEww6Ho-1" value="Nhánh" style="rounded=0;whiteSpace=wrap;html=1;" parent="1" vertex="1">
          <mxGeometry x="120" y="160" width="120" height="60" as="geometry" />
        </mxCell>
        <mxCell id="plBoECsc5ai0IXEww6Ho-3" value="&lt;u&gt;Mã nhánh&lt;/u&gt;" style="ellipse;whiteSpace=wrap;html=1;aspect=fixed;" parent="1" vertex="1">
          <mxGeometry x="230" y="60" width="60" height="60" as="geometry" />
        </mxCell>
        <mxCell id="plBoECsc5ai0IXEww6Ho-4" value="Tên nhánh" style="ellipse;whiteSpace=wrap;html=1;aspect=fixed;" parent="1" vertex="1">
          <mxGeometry x="150" y="50" width="60" height="60" as="geometry" />
        </mxCell>
        <mxCell id="plBoECsc5ai0IXEww6Ho-5" value="Địa chỉ" style="ellipse;whiteSpace=wrap;html=1;aspect=fixed;" parent="1" vertex="1">
          <mxGeometry x="50" y="70" width="60" height="60" as="geometry" />
        </mxCell>
        <mxCell id="plBoECsc5ai0IXEww6Ho-6" value="" style="endArrow=none;html=1;rounded=0;exitX=0.25;exitY=0;exitDx=0;exitDy=0;entryX=1;entryY=1;entryDx=0;entryDy=0;" parent="1" source="plBoECsc5ai0IXEww6Ho-1" target="plBoECsc5ai0IXEww6Ho-5" edge="1">
          <mxGeometry width="50" height="50" relative="1" as="geometry">
            <mxPoint x="390" y="260" as="sourcePoint" />
            <mxPoint x="130" y="60" as="targetPoint" />
          </mxGeometry>
        </mxCell>
        <mxCell id="plBoECsc5ai0IXEww6Ho-7" value="" style="endArrow=none;html=1;rounded=0;exitX=0.5;exitY=0;exitDx=0;exitDy=0;entryX=0.367;entryY=1.017;entryDx=0;entryDy=0;entryPerimeter=0;" parent="1" source="plBoECsc5ai0IXEww6Ho-1" target="plBoECsc5ai0IXEww6Ho-4" edge="1">
          <mxGeometry width="50" height="50" relative="1" as="geometry">
            <mxPoint x="170" y="140" as="sourcePoint" />
            <mxPoint x="121" y="71" as="targetPoint" />
          </mxGeometry>
        </mxCell>
        <mxCell id="plBoECsc5ai0IXEww6Ho-8" value="" style="endArrow=none;html=1;rounded=0;exitX=0.75;exitY=0;exitDx=0;exitDy=0;entryX=0.2;entryY=0.967;entryDx=0;entryDy=0;entryPerimeter=0;" parent="1" source="plBoECsc5ai0IXEww6Ho-1" target="plBoECsc5ai0IXEww6Ho-3" edge="1">
          <mxGeometry width="50" height="50" relative="1" as="geometry">
            <mxPoint x="180" y="150" as="sourcePoint" />
            <mxPoint x="131" y="81" as="targetPoint" />
          </mxGeometry>
        </mxCell>
        <mxCell id="plBoECsc5ai0IXEww6Ho-9" value="Cuốn sách" style="rounded=0;whiteSpace=wrap;html=1;" parent="1" vertex="1">
          <mxGeometry x="490" y="300" width="120" height="60" as="geometry" />
        </mxCell>
        <mxCell id="plBoECsc5ai0IXEww6Ho-10" value="&lt;u&gt;Mã sách&lt;/u&gt;" style="ellipse;whiteSpace=wrap;html=1;aspect=fixed;" parent="1" vertex="1">
          <mxGeometry x="710" y="260" width="60" height="60" as="geometry" />
        </mxCell>
        <mxCell id="plBoECsc5ai0IXEww6Ho-11" value="Tên sách" style="ellipse;whiteSpace=wrap;html=1;aspect=fixed;" parent="1" vertex="1">
          <mxGeometry x="660" y="340" width="60" height="60" as="geometry" />
        </mxCell>
        <mxCell id="plBoECsc5ai0IXEww6Ho-12" value="NXB &amp;amp; Tác giả" style="ellipse;whiteSpace=wrap;html=1;aspect=fixed;" parent="1" vertex="1">
          <mxGeometry x="670" y="190" width="60" height="60" as="geometry" />
        </mxCell>
        <mxCell id="plBoECsc5ai0IXEww6Ho-13" value="" style="endArrow=none;html=1;rounded=0;exitX=0.878;exitY=0.011;exitDx=0;exitDy=0;exitPerimeter=0;" parent="1" source="plBoECsc5ai0IXEww6Ho-9" target="plBoECsc5ai0IXEww6Ho-12" edge="1">
          <mxGeometry width="50" height="50" relative="1" as="geometry">
            <mxPoint x="210" y="140" as="sourcePoint" />
            <mxPoint x="292" y="78" as="targetPoint" />
          </mxGeometry>
        </mxCell>
        <mxCell id="plBoECsc5ai0IXEww6Ho-14" value="" style="endArrow=none;html=1;rounded=0;exitX=1;exitY=0.25;exitDx=0;exitDy=0;entryX=0.067;entryY=0.656;entryDx=0;entryDy=0;entryPerimeter=0;" parent="1" source="plBoECsc5ai0IXEww6Ho-9" target="plBoECsc5ai0IXEww6Ho-10" edge="1">
          <mxGeometry width="50" height="50" relative="1" as="geometry">
            <mxPoint x="488" y="141" as="sourcePoint" />
            <mxPoint x="441" y="75" as="targetPoint" />
          </mxGeometry>
        </mxCell>
        <mxCell id="plBoECsc5ai0IXEww6Ho-15" value="" style="endArrow=none;html=1;rounded=0;exitX=1;exitY=0.75;exitDx=0;exitDy=0;" parent="1" source="plBoECsc5ai0IXEww6Ho-9" target="plBoECsc5ai0IXEww6Ho-11" edge="1">
          <mxGeometry width="50" height="50" relative="1" as="geometry">
            <mxPoint x="488" y="141" as="sourcePoint" />
            <mxPoint x="441" y="75" as="targetPoint" />
          </mxGeometry>
        </mxCell>
        <mxCell id="plBoECsc5ai0IXEww6Ho-16" value="Tác giả" style="rounded=0;whiteSpace=wrap;html=1;" parent="1" vertex="1">
          <mxGeometry x="610" y="60" width="120" height="60" as="geometry" />
        </mxCell>
        <mxCell id="plBoECsc5ai0IXEww6Ho-17" value="Nhà xuất bản" style="rounded=0;whiteSpace=wrap;html=1;" parent="1" vertex="1">
          <mxGeometry x="510" y="510" width="120" height="60" as="geometry" />
        </mxCell>
        <mxCell id="plBoECsc5ai0IXEww6Ho-18" value="&lt;u&gt;Tên&lt;/u&gt;" style="ellipse;whiteSpace=wrap;html=1;aspect=fixed;" parent="1" vertex="1">
          <mxGeometry x="660" y="430" width="60" height="60" as="geometry" />
        </mxCell>
        <mxCell id="plBoECsc5ai0IXEww6Ho-19" value="Địa chỉ" style="ellipse;whiteSpace=wrap;html=1;aspect=fixed;" parent="1" vertex="1">
          <mxGeometry x="660" y="570" width="60" height="60" as="geometry" />
        </mxCell>
        <mxCell id="plBoECsc5ai0IXEww6Ho-20" value="SĐT" style="ellipse;whiteSpace=wrap;html=1;aspect=fixed;" parent="1" vertex="1">
          <mxGeometry x="710" y="490" width="60" height="60" as="geometry" />
        </mxCell>
        <mxCell id="plBoECsc5ai0IXEww6Ho-21" value="" style="endArrow=none;html=1;rounded=0;exitX=1;exitY=0.25;exitDx=0;exitDy=0;entryX=0;entryY=0.5;entryDx=0;entryDy=0;" parent="1" source="plBoECsc5ai0IXEww6Ho-17" target="plBoECsc5ai0IXEww6Ho-18" edge="1">
          <mxGeometry width="50" height="50" relative="1" as="geometry">
            <mxPoint x="560" y="140" as="sourcePoint" />
            <mxPoint x="585" y="96" as="targetPoint" />
          </mxGeometry>
        </mxCell>
        <mxCell id="plBoECsc5ai0IXEww6Ho-22" value="" style="endArrow=none;html=1;rounded=0;exitX=0.869;exitY=0.994;exitDx=0;exitDy=0;entryX=0;entryY=0;entryDx=0;entryDy=0;exitPerimeter=0;" parent="1" source="plBoECsc5ai0IXEww6Ho-17" target="plBoECsc5ai0IXEww6Ho-19" edge="1">
          <mxGeometry width="50" height="50" relative="1" as="geometry">
            <mxPoint x="661" y="291" as="sourcePoint" />
            <mxPoint x="692" y="232" as="targetPoint" />
          </mxGeometry>
        </mxCell>
        <mxCell id="plBoECsc5ai0IXEww6Ho-24" value="" style="endArrow=none;html=1;rounded=0;exitX=1;exitY=0.5;exitDx=0;exitDy=0;entryX=0;entryY=0.5;entryDx=0;entryDy=0;" parent="1" source="plBoECsc5ai0IXEww6Ho-17" target="plBoECsc5ai0IXEww6Ho-20" edge="1">
          <mxGeometry width="50" height="50" relative="1" as="geometry">
            <mxPoint x="680" y="305" as="sourcePoint" />
            <mxPoint x="760" y="260" as="targetPoint" />
          </mxGeometry>
        </mxCell>
        <mxCell id="plBoECsc5ai0IXEww6Ho-26" value="Bản sao" style="rounded=0;whiteSpace=wrap;html=1;" parent="1" vertex="1">
          <mxGeometry x="414" y="100" width="120" height="60" as="geometry" />
        </mxCell>
        <mxCell id="plBoECsc5ai0IXEww6Ho-28" value="&lt;u&gt;Mã sách&lt;/u&gt;" style="ellipse;whiteSpace=wrap;html=1;aspect=fixed;" parent="1" vertex="1">
          <mxGeometry x="390" width="60" height="60" as="geometry" />
        </mxCell>
        <mxCell id="plBoECsc5ai0IXEww6Ho-29" value="Số các bản sao" style="ellipse;whiteSpace=wrap;html=1;aspect=fixed;" parent="1" vertex="1">
          <mxGeometry x="500" y="10" width="60" height="60" as="geometry" />
        </mxCell>
        <mxCell id="plBoECsc5ai0IXEww6Ho-30" value="" style="endArrow=none;html=1;rounded=0;exitX=0.156;exitY=0;exitDx=0;exitDy=0;exitPerimeter=0;" parent="1" source="plBoECsc5ai0IXEww6Ho-26" target="plBoECsc5ai0IXEww6Ho-28" edge="1">
          <mxGeometry width="50" height="50" relative="1" as="geometry">
            <mxPoint x="700" y="305" as="sourcePoint" />
            <mxPoint x="760" y="260" as="targetPoint" />
          </mxGeometry>
        </mxCell>
        <mxCell id="plBoECsc5ai0IXEww6Ho-31" value="" style="endArrow=none;html=1;rounded=0;exitX=0.75;exitY=0;exitDx=0;exitDy=0;entryX=0.5;entryY=1;entryDx=0;entryDy=0;" parent="1" source="plBoECsc5ai0IXEww6Ho-26" target="plBoECsc5ai0IXEww6Ho-29" edge="1">
          <mxGeometry width="50" height="50" relative="1" as="geometry">
            <mxPoint x="382" y="321" as="sourcePoint" />
            <mxPoint x="374" y="390" as="targetPoint" />
          </mxGeometry>
        </mxCell>
        <mxCell id="plBoECsc5ai0IXEww6Ho-32" value="Người mượn sách" style="rounded=0;whiteSpace=wrap;html=1;" parent="1" vertex="1">
          <mxGeometry x="280" y="420" width="120" height="60" as="geometry" />
        </mxCell>
        <mxCell id="plBoECsc5ai0IXEww6Ho-33" value="&lt;u&gt;Số thẻ&lt;/u&gt;" style="ellipse;whiteSpace=wrap;html=1;aspect=fixed;" parent="1" vertex="1">
          <mxGeometry x="160" y="480" width="60" height="60" as="geometry" />
        </mxCell>
        <mxCell id="plBoECsc5ai0IXEww6Ho-34" value="Họ tên" style="ellipse;whiteSpace=wrap;html=1;aspect=fixed;" parent="1" vertex="1">
          <mxGeometry x="230" y="540" width="60" height="60" as="geometry" />
        </mxCell>
        <mxCell id="plBoECsc5ai0IXEww6Ho-35" value="Địa chỉ" style="ellipse;whiteSpace=wrap;html=1;aspect=fixed;" parent="1" vertex="1">
          <mxGeometry x="310" y="520" width="60" height="60" as="geometry" />
        </mxCell>
        <mxCell id="plBoECsc5ai0IXEww6Ho-36" value="SĐT" style="ellipse;whiteSpace=wrap;html=1;aspect=fixed;" parent="1" vertex="1">
          <mxGeometry x="390" y="510" width="60" height="60" as="geometry" />
        </mxCell>
        <mxCell id="plBoECsc5ai0IXEww6Ho-38" value="" style="endArrow=none;html=1;rounded=0;exitX=0.975;exitY=0.281;exitDx=0;exitDy=0;exitPerimeter=0;entryX=0;entryY=0.75;entryDx=0;entryDy=0;" parent="1" source="plBoECsc5ai0IXEww6Ho-33" target="plBoECsc5ai0IXEww6Ho-32" edge="1">
          <mxGeometry width="50" height="50" relative="1" as="geometry">
            <mxPoint x="360" y="260" as="sourcePoint" />
            <mxPoint x="410" y="210" as="targetPoint" />
          </mxGeometry>
        </mxCell>
        <mxCell id="plBoECsc5ai0IXEww6Ho-39" value="" style="endArrow=none;html=1;rounded=0;exitX=0.673;exitY=0.035;exitDx=0;exitDy=0;exitPerimeter=0;entryX=0.067;entryY=1.011;entryDx=0;entryDy=0;entryPerimeter=0;" parent="1" source="plBoECsc5ai0IXEww6Ho-34" target="plBoECsc5ai0IXEww6Ho-32" edge="1">
          <mxGeometry width="50" height="50" relative="1" as="geometry">
            <mxPoint x="109" y="367" as="sourcePoint" />
            <mxPoint x="190" y="355" as="targetPoint" />
          </mxGeometry>
        </mxCell>
        <mxCell id="plBoECsc5ai0IXEww6Ho-40" value="" style="endArrow=none;html=1;rounded=0;" parent="1" source="plBoECsc5ai0IXEww6Ho-35" target="plBoECsc5ai0IXEww6Ho-32" edge="1">
          <mxGeometry width="50" height="50" relative="1" as="geometry">
            <mxPoint x="119" y="377" as="sourcePoint" />
            <mxPoint x="200" y="365" as="targetPoint" />
          </mxGeometry>
        </mxCell>
        <mxCell id="plBoECsc5ai0IXEww6Ho-41" value="" style="endArrow=none;html=1;rounded=0;exitX=0.252;exitY=0.019;exitDx=0;exitDy=0;exitPerimeter=0;entryX=0.813;entryY=1.059;entryDx=0;entryDy=0;entryPerimeter=0;" parent="1" source="plBoECsc5ai0IXEww6Ho-36" target="plBoECsc5ai0IXEww6Ho-32" edge="1">
          <mxGeometry width="50" height="50" relative="1" as="geometry">
            <mxPoint x="129" y="387" as="sourcePoint" />
            <mxPoint x="210" y="375" as="targetPoint" />
          </mxGeometry>
        </mxCell>
        <mxCell id="plBoECsc5ai0IXEww6Ho-43" value="Viết" style="rhombus;whiteSpace=wrap;html=1;" parent="1" vertex="1">
          <mxGeometry x="550" y="180" width="80" height="80" as="geometry" />
        </mxCell>
        <mxCell id="plBoECsc5ai0IXEww6Ho-45" value="" style="shape=link;html=1;rounded=0;exitX=0.5;exitY=1;exitDx=0;exitDy=0;entryX=0.5;entryY=0;entryDx=0;entryDy=0;" parent="1" source="plBoECsc5ai0IXEww6Ho-16" target="plBoECsc5ai0IXEww6Ho-43" edge="1">
          <mxGeometry width="100" relative="1" as="geometry">
            <mxPoint x="380" y="240" as="sourcePoint" />
            <mxPoint x="480" y="240" as="targetPoint" />
          </mxGeometry>
        </mxCell>
        <mxCell id="plBoECsc5ai0IXEww6Ho-46" value="" style="shape=link;html=1;rounded=0;exitX=0.5;exitY=0;exitDx=0;exitDy=0;entryX=0.5;entryY=1;entryDx=0;entryDy=0;" parent="1" source="plBoECsc5ai0IXEww6Ho-9" target="plBoECsc5ai0IXEww6Ho-43" edge="1">
          <mxGeometry width="100" relative="1" as="geometry">
            <mxPoint x="420" y="170" as="sourcePoint" />
            <mxPoint x="460" y="150" as="targetPoint" />
          </mxGeometry>
        </mxCell>
        <mxCell id="plBoECsc5ai0IXEww6Ho-47" value="Xuất bản" style="rhombus;whiteSpace=wrap;html=1;" parent="1" vertex="1">
          <mxGeometry x="520" y="390" width="80" height="80" as="geometry" />
        </mxCell>
        <mxCell id="plBoECsc5ai0IXEww6Ho-48" value="" style="shape=link;html=1;rounded=0;exitX=0.5;exitY=0;exitDx=0;exitDy=0;entryX=0.439;entryY=1.045;entryDx=0;entryDy=0;entryPerimeter=0;" parent="1" source="plBoECsc5ai0IXEww6Ho-47" target="plBoECsc5ai0IXEww6Ho-9" edge="1">
          <mxGeometry width="100" relative="1" as="geometry">
            <mxPoint x="420" y="170" as="sourcePoint" />
            <mxPoint x="460" y="150" as="targetPoint" />
          </mxGeometry>
        </mxCell>
        <mxCell id="plBoECsc5ai0IXEww6Ho-49" value="" style="shape=link;html=1;rounded=0;exitX=0.426;exitY=-0.025;exitDx=0;exitDy=0;entryX=0.5;entryY=1;entryDx=0;entryDy=0;exitPerimeter=0;" parent="1" source="plBoECsc5ai0IXEww6Ho-17" target="plBoECsc5ai0IXEww6Ho-47" edge="1">
          <mxGeometry width="100" relative="1" as="geometry">
            <mxPoint x="630" y="230" as="sourcePoint" />
            <mxPoint x="633" y="173" as="targetPoint" />
          </mxGeometry>
        </mxCell>
        <mxCell id="plBoECsc5ai0IXEww6Ho-50" value="Có" style="rhombus;whiteSpace=wrap;html=1;" parent="1" vertex="1">
          <mxGeometry x="450" y="190" width="80" height="80" as="geometry" />
        </mxCell>
        <mxCell id="plBoECsc5ai0IXEww6Ho-52" value="" style="endArrow=none;html=1;rounded=0;exitX=0.5;exitY=1;exitDx=0;exitDy=0;entryX=0.156;entryY=0.011;entryDx=0;entryDy=0;entryPerimeter=0;" parent="1" source="plBoECsc5ai0IXEww6Ho-50" target="plBoECsc5ai0IXEww6Ho-9" edge="1">
          <mxGeometry width="50" height="50" relative="1" as="geometry">
            <mxPoint x="210" y="140" as="sourcePoint" />
            <mxPoint x="292" y="78" as="targetPoint" />
          </mxGeometry>
        </mxCell>
        <mxCell id="plBoECsc5ai0IXEww6Ho-53" value="" style="shape=link;html=1;rounded=0;entryX=0.5;entryY=0;entryDx=0;entryDy=0;exitX=0.613;exitY=1.044;exitDx=0;exitDy=0;exitPerimeter=0;" parent="1" source="plBoECsc5ai0IXEww6Ho-26" target="plBoECsc5ai0IXEww6Ho-50" edge="1">
          <mxGeometry width="100" relative="1" as="geometry">
            <mxPoint x="480" y="210" as="sourcePoint" />
            <mxPoint x="460" y="150" as="targetPoint" />
          </mxGeometry>
        </mxCell>
        <mxCell id="plBoECsc5ai0IXEww6Ho-55" value="Lưu trữ" style="rhombus;whiteSpace=wrap;html=1;" parent="1" vertex="1">
          <mxGeometry x="290" y="130" width="80" height="80" as="geometry" />
        </mxCell>
        <mxCell id="plBoECsc5ai0IXEww6Ho-56" value="" style="shape=link;html=1;rounded=0;exitX=1;exitY=0.5;exitDx=0;exitDy=0;entryX=0;entryY=0.5;entryDx=0;entryDy=0;" parent="1" source="plBoECsc5ai0IXEww6Ho-1" target="plBoECsc5ai0IXEww6Ho-55" edge="1">
          <mxGeometry width="100" relative="1" as="geometry">
            <mxPoint x="472" y="361" as="sourcePoint" />
            <mxPoint x="550" y="310" as="targetPoint" />
          </mxGeometry>
        </mxCell>
        <mxCell id="plBoECsc5ai0IXEww6Ho-58" value="" style="shape=link;html=1;rounded=0;exitX=0;exitY=0.5;exitDx=0;exitDy=0;entryX=1;entryY=0.5;entryDx=0;entryDy=0;" parent="1" source="plBoECsc5ai0IXEww6Ho-26" target="plBoECsc5ai0IXEww6Ho-55" edge="1">
          <mxGeometry width="100" relative="1" as="geometry">
            <mxPoint x="640" y="150" as="sourcePoint" />
            <mxPoint x="570" y="120" as="targetPoint" />
          </mxGeometry>
        </mxCell>
        <mxCell id="plBoECsc5ai0IXEww6Ho-59" value="Cho mượn" style="rhombus;whiteSpace=wrap;html=1;" parent="1" vertex="1">
          <mxGeometry x="280" y="290" width="80" height="80" as="geometry" />
        </mxCell>
        <mxCell id="plBoECsc5ai0IXEww6Ho-60" value="" style="shape=link;html=1;rounded=0;exitX=0.5;exitY=0;exitDx=0;exitDy=0;entryX=0.5;entryY=1;entryDx=0;entryDy=0;" parent="1" source="plBoECsc5ai0IXEww6Ho-32" target="plBoECsc5ai0IXEww6Ho-59" edge="1">
          <mxGeometry width="100" relative="1" as="geometry">
            <mxPoint x="429" y="360" as="sourcePoint" />
            <mxPoint x="370" y="280" as="targetPoint" />
          </mxGeometry>
        </mxCell>
        <mxCell id="plBoECsc5ai0IXEww6Ho-62" value="" style="endArrow=none;html=1;rounded=0;exitX=0.5;exitY=0;exitDx=0;exitDy=0;entryX=0.75;entryY=1;entryDx=0;entryDy=0;" parent="1" source="plBoECsc5ai0IXEww6Ho-59" target="plBoECsc5ai0IXEww6Ho-1" edge="1">
          <mxGeometry width="50" height="50" relative="1" as="geometry">
            <mxPoint x="210" y="140" as="sourcePoint" />
            <mxPoint x="292" y="78" as="targetPoint" />
          </mxGeometry>
        </mxCell>
        <mxCell id="plBoECsc5ai0IXEww6Ho-65" value="" style="endArrow=none;html=1;rounded=0;exitX=1;exitY=0.5;exitDx=0;exitDy=0;entryX=0.158;entryY=1.033;entryDx=0;entryDy=0;entryPerimeter=0;" parent="1" source="plBoECsc5ai0IXEww6Ho-59" target="plBoECsc5ai0IXEww6Ho-26" edge="1">
          <mxGeometry width="50" height="50" relative="1" as="geometry">
            <mxPoint x="370" y="300" as="sourcePoint" />
            <mxPoint x="220" y="230" as="targetPoint" />
          </mxGeometry>
        </mxCell>
        <mxCell id="plBoECsc5ai0IXEww6Ho-66" value="Ngày mượn" style="ellipse;whiteSpace=wrap;html=1;aspect=fixed;" parent="1" vertex="1">
          <mxGeometry x="160" y="260" width="60" height="60" as="geometry" />
        </mxCell>
        <mxCell id="plBoECsc5ai0IXEww6Ho-67" value="Ngày trả" style="ellipse;whiteSpace=wrap;html=1;aspect=fixed;" parent="1" vertex="1">
          <mxGeometry x="160" y="340" width="60" height="60" as="geometry" />
        </mxCell>
        <mxCell id="plBoECsc5ai0IXEww6Ho-68" value="" style="endArrow=none;html=1;rounded=0;exitX=0;exitY=0;exitDx=0;exitDy=0;entryX=1;entryY=0.5;entryDx=0;entryDy=0;" parent="1" source="plBoECsc5ai0IXEww6Ho-59" target="plBoECsc5ai0IXEww6Ho-66" edge="1">
          <mxGeometry width="50" height="50" relative="1" as="geometry">
            <mxPoint x="370" y="300" as="sourcePoint" />
            <mxPoint x="220" y="230" as="targetPoint" />
          </mxGeometry>
        </mxCell>
        <mxCell id="plBoECsc5ai0IXEww6Ho-69" value="" style="endArrow=none;html=1;rounded=0;exitX=1;exitY=0.5;exitDx=0;exitDy=0;entryX=0;entryY=1;entryDx=0;entryDy=0;" parent="1" source="plBoECsc5ai0IXEww6Ho-67" target="plBoECsc5ai0IXEww6Ho-59" edge="1">
          <mxGeometry width="50" height="50" relative="1" as="geometry">
            <mxPoint x="410" y="340" as="sourcePoint" />
            <mxPoint x="640" y="250" as="targetPoint" />
          </mxGeometry>
        </mxCell>
        <mxCell id="plBoECsc5ai0IXEww6Ho-73" value="n" style="text;html=1;align=center;verticalAlign=middle;resizable=0;points=[];autosize=1;strokeColor=none;fillColor=none;" parent="1" vertex="1">
          <mxGeometry x="580" y="140" width="30" height="30" as="geometry" />
        </mxCell>
        <mxCell id="plBoECsc5ai0IXEww6Ho-74" value="n" style="text;html=1;align=center;verticalAlign=middle;resizable=0;points=[];autosize=1;strokeColor=none;fillColor=none;" parent="1" vertex="1">
          <mxGeometry x="545" y="250" width="30" height="30" as="geometry" />
        </mxCell>
        <mxCell id="plBoECsc5ai0IXEww6Ho-75" value="n" style="text;html=1;align=center;verticalAlign=middle;resizable=0;points=[];autosize=1;strokeColor=none;fillColor=none;" parent="1" vertex="1">
          <mxGeometry x="520" y="370" width="30" height="30" as="geometry" />
        </mxCell>
        <mxCell id="plBoECsc5ai0IXEww6Ho-76" value="1" style="text;html=1;align=center;verticalAlign=middle;resizable=0;points=[];autosize=1;strokeColor=none;fillColor=none;" parent="1" vertex="1">
          <mxGeometry x="530" y="470" width="30" height="30" as="geometry" />
        </mxCell>
        <mxCell id="plBoECsc5ai0IXEww6Ho-77" value="1" style="text;html=1;align=center;verticalAlign=middle;resizable=0;points=[];autosize=1;strokeColor=none;fillColor=none;" parent="1" vertex="1">
          <mxGeometry x="470" y="270" width="30" height="30" as="geometry" />
        </mxCell>
        <mxCell id="plBoECsc5ai0IXEww6Ho-78" value="n" style="text;html=1;align=center;verticalAlign=middle;resizable=0;points=[];autosize=1;strokeColor=none;fillColor=none;" parent="1" vertex="1">
          <mxGeometry x="460" y="170" width="30" height="30" as="geometry" />
        </mxCell>
        <mxCell id="plBoECsc5ai0IXEww6Ho-79" value="1" style="text;html=1;align=center;verticalAlign=middle;resizable=0;points=[];autosize=1;strokeColor=none;fillColor=none;" parent="1" vertex="1">
          <mxGeometry x="360" y="300" width="30" height="30" as="geometry" />
        </mxCell>
        <mxCell id="plBoECsc5ai0IXEww6Ho-80" value="n" style="text;html=1;align=center;verticalAlign=middle;resizable=0;points=[];autosize=1;strokeColor=none;fillColor=none;" parent="1" vertex="1">
          <mxGeometry x="360" y="130" width="30" height="30" as="geometry" />
        </mxCell>
        <mxCell id="plBoECsc5ai0IXEww6Ho-81" value="n" style="text;html=1;align=center;verticalAlign=middle;resizable=0;points=[];autosize=1;strokeColor=none;fillColor=none;" parent="1" vertex="1">
          <mxGeometry x="260" y="140" width="30" height="30" as="geometry" />
        </mxCell>
        <mxCell id="plBoECsc5ai0IXEww6Ho-84" value="1" style="text;html=1;align=center;verticalAlign=middle;resizable=0;points=[];autosize=1;strokeColor=none;fillColor=none;" parent="1" vertex="1">
          <mxGeometry x="325" y="360" width="30" height="30" as="geometry" />
        </mxCell>
        <mxCell id="plBoECsc5ai0IXEww6Ho-85" value="n" style="text;html=1;align=center;verticalAlign=middle;resizable=0;points=[];autosize=1;strokeColor=none;fillColor=none;" parent="1" vertex="1">
          <mxGeometry x="290" y="250" width="30" height="30" as="geometry" />
        </mxCell>
      </root>
    </mxGraphModel>
  </diagram>
</mxfile>
